<svg width="200" height="200" viewBox="0 0 200 200" fill="none" xmlns="http://www.w3.org/2000/svg">
<path d="M186.25 42.5C186.25 55.5333 166.8 86.0313 159.9 96.4427C159.637 96.8383 159.282 97.1626 158.863 97.3864C158.445 97.6111 157.978 97.7284 157.504 97.7284C157.029 97.7284 156.562 97.6111 156.145 97.3864C155.726 97.1626 155.37 96.8383 155.108 96.4427C148.2 86.039 128.75 55.5333 128.75 42.5C128.75 34.875 131.779 27.5623 137.17 22.1707C142.562 16.779 149.875 13.75 157.5 13.75C165.125 13.75 172.438 16.779 177.83 22.1707C183.221 27.5623 186.25 34.875 186.25 42.5Z" stroke="black" stroke-width="16" stroke-linecap="round" stroke-linejoin="round"/>
<path d="M48.25 71.25C57.3999 71.25 66.1752 74.8848 72.6452 81.3548C79.1152 87.8246 82.75 96.5998 82.75 105.75C82.75 120.478 62.142 148.499 52.781 160.475C52.2432 161.163 51.5557 161.72 50.7706 162.102C49.9855 162.486 49.1235 162.684 48.25 162.684C47.3765 162.684 46.5145 162.486 45.7294 162.102C44.9443 161.72 44.2568 161.163 43.719 160.475C34.358 148.507 13.75 120.478 13.75 105.75C13.75 96.5998 17.3848 87.8246 23.8548 81.3548C30.3248 74.8848 39.1001 71.25 48.25 71.25Z" stroke="black" stroke-width="16" stroke-linecap="round" stroke-linejoin="round"/>
<path d="M48.25 186.25H117.25C120.3 186.25 123.225 185.039 125.382 182.882C127.539 180.725 128.75 177.8 128.75 174.75V140.25C128.75 137.2 129.961 134.275 132.118 132.118C134.275 129.961 137.2 128.75 140.25 128.75H163.25" stroke="black" stroke-width="16" stroke-linecap="round" stroke-linejoin="round"/>
<path d="M48.25 108.625C46.6622 108.625 45.375 107.338 45.375 105.75C45.375 104.162 46.6622 102.875 48.25 102.875" stroke="black" stroke-width="16"/>
<path d="M48.25 108.625C49.8378 108.625 51.125 107.338 51.125 105.75C51.125 104.162 49.8378 102.875 48.25 102.875" stroke="black" stroke-width="16"/>
<path d="M157.5 45.375C155.912 45.375 154.625 44.0878 154.625 42.5C154.625 40.9122 155.912 39.625 157.5 39.625" stroke="black" stroke-width="16"/>
<path d="M157.5 45.375C159.088 45.375 160.375 44.0878 160.375 42.5C160.375 40.9122 159.088 39.625 157.5 39.625" stroke="black" stroke-width="16"/>
</svg>
