<svg width="65" height="40" viewBox="0 0 65 40" fill="none" xmlns="http://www.w3.org/2000/svg">
<path d="M48.5912 37.7558L63.4833 22.8636C65.2113 21.1356 65.2113 18.3341 63.4833 16.6061L48.1407 1.2635C45.4626 -1.41461 40.8815 0.442514 40.8242 4.22949C40.7867 6.71109 38.6559 8.64219 36.1826 8.43607L4.79217 5.82001C2.21249 5.60502 1.55547e-05 7.64078 1.82521e-05 10.2294L2.09495e-05 27.6123C2.09495e-05 30.1633 2.15142 32.1858 4.69758 32.0285L36.3378 30.0736C38.8623 29.9176 41.0036 31.9058 41.035 34.4349L41.0381 34.6819C41.0867 38.5972 45.8224 40.5245 48.5912 37.7558Z" fill="#3D6BFF"/>
</svg>
